#!OML:ASF F:\VICON\USERDATA\INSTALL\rory3\rory3.ASF
:FULLY-SPECIFIED
:DEGREES
28
root 1.61391 16.1691 -32.3551 22.9631 8.27995 -3.23693
lowerback -5.75801 -0.522933 1.40797
upperback -12.8525 -0.611603 0.502314
thorax -10.4766 -0.389963 -0.228139
lowerneck -7.88613 -1.30996 -0.165859
upperneck 39.7847 -4.00869 5.49266
head 15.4363 -0.977241 1.79712
rclavicle 1.46107e-014 9.54166e-015
rhumerus 63.737 -33.7544 -23.11
rradius 44.3541
rwrist -7.7182
rhand 3.71611 9.2756
rfingers 7.12502
rthumb 29.1446 -18.4632
lclavicle 1.46107e-014 9.54166e-015
lhumerus 81.4144 32.0004 29.3771
lradius 45.4776
lwrist -7.88054
lhand 3.01055 14.4223
lfingers 7.12502
lthumb 28.4706 42.2759
rfemur -71.6241 -5.5421 34.8889
rtibia 44.4683
rfoot -9.71931 -31.0755
rtoes 55.1186
lfemur -38.9759 -2.58785 -25.7029
ltibia 39.0381
lfoot -37.6609 21.9495
ltoes -13.241
29
root 1.60811 16.1753 -32.3396 22.8511 8.47784 -3.21587
lowerback -5.1975 -0.691951 1.41636
upperback -13.1262 -0.820602 0.583461
thorax -11.1336 -0.492141 -0.126551
lowerneck -7.0624 -1.23571 -0.320702
upperneck 39.756 -3.88157 5.60232
head 15.2255 -0.947596 1.89201
rclavicle -1.44119e-015 1.66979e-014
rhumerus 63.955 -33.0345 -23.1734
rradius 44.7223
rwrist -7.93056
rhand 3.76555 9.31702
rfingers 7.12502
rthumb 29.1918 -18.4136
lclavicle -1.44119e-015 1.66979e-014
lhumerus 81.2233 31.3538 28.8799
lradius 45.5481
lwrist -8.33819
lhand 3.39315 14.1858
lfingers 7.12502
lthumb 28.8362 41.9776
rfemur -71.562 -6.20005 35.4608
rtibia 44.577
rfoot -9.56197 -30.213
rtoes 55.1875
lfemur -38.6883 -2.74092 -25.6116
ltibia 38.8956
lfoot -37.4672 22.1464
ltoes -12.3448
30
root 1.60611 16.1769 -32.3226 22.9382 8.41103 -3.29507
lowerback -4.91484 -0.696791 1.44526
upperback -13.1424 -0.819656 0.616679
thorax -11.322 -0.493375 -0.10239
lowerneck -7.38264 -1.23896 -0.248494
upperneck 39.8397 -3.91633 5.59291
head 15.3448 -0.94694 1.87158
rclavicle -2.80783e-015 4.77083e-015
rhumerus 63.9193 -32.9367 -22.7586
rradius 45.0816
rwrist -8.53702
rhand 3.52857 9.2579
rfingers 7.12502
rthumb 28.9655 -18.5118
lclavicle -2.80783e-015 4.77083e-015
lhumerus 81.4148 31.1713 28.4457
lradius 45.5561
lwrist -8.32285
lhand 3.36562 14.1833
lfingers 7.12502
lthumb 28.8099 41.9796
rfemur -71.6788 -6.52915 36.0423
rtibia 44.5954
rfoot -8.55178 -29.7713
rtoes 55.0364
lfemur -38.6774 -3.01206 -25.428
ltibia 38.8343
lfoot -38.1785 22.0686
ltoes -13.7197
31
root 1.60792 16.176 -32.2947 22.9831 8.40339 -3.35543
lowerback -5.07644 -0.753803 1.41649
upperback -12.8968 -0.892927 0.767637
thorax -10.9334 -0.516053 0.073232
lowerneck -7.88323 -1.16534 -0.18904
upperneck 39.845 -3.78883 5.47552
head 15.4551 -0.891385 1.82767
rclavicle 8.87077e-015 -3.57812e-015
rhumerus 64.3012 -32.9957 -22.4635
rradius 45.2971
rwrist -9.40672
rhand 3.44312 9.19868
rfingers 7.12502
rthumb 28.8839 -18.585
lclavicle 8.87077e-015 -3.57812e-015
lhumerus 81.4908 31.3849 28.014
lradius 45.5883
lwrist -8.19982
lhand 3.26837 14.3322
lfingers 7.12502
lthumb 28.717 42.1443
rfemur -71.7131 -6.94948 36.6096
rtibia 44.577
rfoot -8.13986 -29.1716
rtoes 55.7031
lfemur -38.5631 -3.5862 -25.1811
ltibia 38.7848
lfoot -38.4478 22.1493
ltoes -12.2391
32
root 1.60909 16.1736 -32.2692 23.2284 8.29815 -3.49616
lowerback -5.32612 -0.723783 1.51615
upperback -12.837 -0.852037 0.83435
thorax -10.7154 -0.50135 0.0827412
lowerneck -8.1046 -1.14451 -0.161066
upperneck 39.8766 -3.79051 5.51905
head 15.5258 -0.878595 1.8417
rclavicle -5.11871e-015 6.36111e-015
rhumerus 64.4349 -32.9378 -22.2157
rradius 45.5162
rwrist -10.3756
rhand 3.43662 9.08887
rfingers 7.12502
rthumb 28.8777 -18.6959
lclavicle -5.11871e-015 6.36111e-015
lhumerus 81.8117 31.1837 27.9042
lradius 45.4471
lwrist -8.42765
lhand 3.20758 14.2716
lfingers 7.12502
lthumb 28.6589 42.0935
rfemur -71.9583 -7.18789 37.2407
rtibia 44.5215
rfoot -7.4782 -28.6955
rtoes 55.9193
lfemur -38.7327 -3.99121 -24.9081
ltibia 38.7743
lfoot -38.5653 22.3776
ltoes -11.0737
